<?xml version="1.0" encoding="UTF-8" standalone="no"?>
<!-- Created with Inkscape (http://www.inkscape.org/) -->

<svg
   xmlns:dc="http://purl.org/dc/elements/1.1/"
   xmlns:cc="http://creativecommons.org/ns#"
   xmlns:rdf="http://www.w3.org/1999/02/22-rdf-syntax-ns#"
   xmlns:svg="http://www.w3.org/2000/svg"
   xmlns="http://www.w3.org/2000/svg"
   xmlns:sodipodi="http://sodipodi.sourceforge.net/DTD/sodipodi-0.dtd"
   xmlns:inkscape="http://www.inkscape.org/namespaces/inkscape"
   width="4396.1841"
   height="2000.3521"
   viewBox="0 0 1163.157 529.25982"
   version="1.1"
   id="svg1934"
   inkscape:export-filename="/home/didik/Pictures/inkscape/kodingin/newlogo/icon-bg-grey.png"
   inkscape:export-xdpi="96"
   inkscape:export-ydpi="96"
   inkscape:version="0.92.3 (2405546, 2018-03-11)"
   sodipodi:docname="icon.svg">
  <defs
     id="defs1928" />
  <sodipodi:namedview
     id="base"
     pagecolor="#ffffff"
     bordercolor="#666666"
     borderopacity="1.0"
     inkscape:pageopacity="0.0"
     inkscape:pageshadow="2"
     inkscape:zoom="0.175"
     inkscape:cx="681.21431"
     inkscape:cy="773.53216"
     inkscape:document-units="mm"
     inkscape:current-layer="layer1"
     showgrid="false"
     inkscape:window-width="1920"
     inkscape:window-height="1016"
     inkscape:window-x="1920"
     inkscape:window-y="27"
     inkscape:window-maximized="1"
     units="px" />
  <metadata
     id="metadata1931">
    <rdf:RDF>
      <cc:Work
         rdf:about="">
        <dc:format>image/svg+xml</dc:format>
        <dc:type
           rdf:resource="http://purl.org/dc/dcmitype/StillImage" />
        <dc:title />
      </cc:Work>
    </rdf:RDF>
  </metadata>
  <g
     inkscape:label="Layer 1"
     inkscape:groupmode="layer"
     id="layer1"
     transform="translate(0,232.25939)">
    <text
       xml:space="preserve"
       style="font-style:normal;font-variant:normal;font-weight:normal;font-stretch:normal;font-size:374.13296509px;line-height:1.25;font-family:'Space Mono';-inkscape-font-specification:'Space Mono';letter-spacing:0px;word-spacing:0px;fill:#343a40;fill-opacity:1;stroke:none;stroke-width:0.26458332"
       x="-1137.1387"
       y="657.43274"
       id="text909"><tspan
         sodipodi:role="line"
         id="tspan907"
         x="-1137.1387"
         y="987.13586"
         style="fill:#343a40;fill-opacity:1;stroke-width:0.26458332" /></text>
    <g
       id="g1422"
       inkscape:export-xdpi="96"
       inkscape:export-ydpi="96"
       transform="translate(-66.523809,6.047619)">
      <rect
         y="-98.938316"
         x="91.926758"
         height="255.50966"
         width="255.50966"
         id="rect2559"
         style="opacity:1;fill:#3eaf7c;fill-opacity:1;stroke:none;stroke-width:4;stroke-linecap:round;stroke-linejoin:round;stroke-miterlimit:4;stroke-dasharray:none;stroke-opacity:1;paint-order:stroke fill markers" />
      <path
         inkscape:connector-curvature="0"
         id="text817-5-2"
         d="m 219.68635,-61.035653 c -0.85206,0 -1.70046,0.01506 -2.5472,0.03746 l 2.88019,-0.03369 c -0.11118,-4.86e-4 -0.22172,-0.0037 -0.33299,-0.0037 z m 8.35843,0.36768 0.2937,25.701666 c 4.85532,0.745285 9.52832,2.129593 14.01743,4.156941 7.09864,2.976847 13.28151,7.213274 18.54822,12.708978 5.26672,5.495712 9.38823,12.136125 12.36509,19.921708 2.22826,5.656478 3.62226,11.762581 4.18256,18.31719 h 27.56518 c -0.66046,-11.23194 -2.99843,-21.345331 -7.01675,-30.338721 -4.57981,-10.991416 -10.87716,-20.26576 -18.89176,-27.822356 -7.78555,-7.556605 -16.83042,-13.281028 -27.13488,-17.173821 -7.71927,-2.916181 -15.6955,-4.739954 -23.92879,-5.471585 z m -17.76822,0.105321 c -7.86111,0.789654 -15.48801,2.574519 -22.87786,5.366264 -10.30447,3.892793 -19.46382,9.617216 -27.47843,17.173821 -7.78564,7.556596 -14.08252,16.83094 -18.89121,27.822356 -3.827,8.99339 -6.05379,19.106788 -6.68285,30.338721 h 27.57427 c 0.5603,-6.554609 1.95421,-12.660712 4.18256,-18.31719 2.97686,-7.785583 7.09874,-14.425996 12.36546,-19.921708 5.26671,-5.495704 11.44912,-9.732131 18.54776,-12.708978 4.34589,-1.962651 8.86419,-3.321824 13.55343,-4.082925 z M 134.34713,37.9068 c 0.63053,11.41565 2.85705,21.71419 6.68193,30.89383 4.80869,10.76238 11.10557,19.92177 18.89121,27.47837 7.78555,7.32761 16.83042,12.93802 27.13488,16.83082 8.07107,3.04905 16.49504,4.8981 25.26852,5.55886 l -0.29176,-25.55126 c -5.38698,-0.59444 -10.50717,-1.82994 -15.3591,-3.70815 -6.86968,-2.97683 -12.9376,-7.21279 -18.20431,-12.70848 -5.26672,-5.4957 -9.3886,-12.0221 -12.36546,-19.5787 -2.24909,-5.88207 -3.64741,-12.28758 -4.19725,-19.21529 z m 143.11934,0 c -0.54993,6.92771 -1.94825,13.33322 -4.19725,19.21529 -2.97686,7.5566 -7.09837,14.083 -12.36509,19.5787 -5.26671,5.49569 -11.44958,9.73165 -18.54822,12.70848 -3.95763,1.58308 -8.14451,2.70735 -12.55806,3.37842 l 0.29222,25.58826 c 7.51049,-0.83705 14.80514,-2.59211 21.8835,-5.26613 10.53343,-3.8928 19.69278,-9.50321 27.47833,-16.83082 7.78563,-7.5566 13.9685,-16.71599 18.54831,-27.47837 4.01603,-9.17964 6.35335,-19.47818 7.01538,-30.89383 z"
         style="font-style:normal;font-variant:normal;font-weight:normal;font-stretch:normal;font-size:374.13296509px;line-height:1.25;font-family:'Space Mono';-inkscape-font-specification:'Space Mono';letter-spacing:0px;word-spacing:0px;fill:#ffffff;fill-opacity:1;stroke:none;stroke-width:8.58704662" />
    </g>
    <rect
       style="opacity:1;fill:#343a40;fill-opacity:1;stroke:none;stroke-width:4;stroke-linecap:round;stroke-linejoin:round;stroke-miterlimit:4;stroke-dasharray:none;stroke-opacity:1;paint-order:stroke fill markers"
       id="rect2559-0"
       width="255.50966"
       height="255.50966"
       x="312.45038"
       y="-92.890694" />
    <path
       style="font-style:normal;font-variant:normal;font-weight:normal;font-stretch:normal;font-size:374.13296509px;line-height:1.25;font-family:'Space Mono';-inkscape-font-specification:'Space Mono';letter-spacing:0px;word-spacing:0px;fill:#ffffff;fill-opacity:1;stroke:none;stroke-width:8.58704662"
       d="m 440.21,-54.988041 c -0.85205,0 -1.70045,0.0151 -2.54719,0.0375 l 2.88019,-0.0337 c -0.11118,-5.2e-4 -0.22172,-0.004 -0.333,-0.004 z m 8.35845,0.36768 0.29369,25.70167 c 4.85532,0.74529 9.52831,2.12959 14.01743,4.15694 7.09864,2.97685 13.2815,7.21327 18.54822,12.70898 5.26672,5.49571 9.38823,12.13613005 12.36509,19.92171 2.22826,5.65648 3.62227,11.76258 4.18257,18.31719 h 27.56517 c -0.66046,-11.23194 -2.99842,-21.34533 -7.01675,-30.33872 -4.5798,-10.99142 -10.87715,-20.26577 -18.89175,-27.82236 -7.78556,-7.55661 -16.83042,-13.28103 -27.13489,-17.17382 -7.71927,-2.91618 -15.6955,-4.73996 -23.92878,-5.47159 z m -17.76823,0.10533 c -7.86111,0.78965 -15.48801,2.57451 -22.87786,5.36626 -10.30446,3.89279 -19.46381,9.61721 -27.47842,17.17382 -7.78564,7.55659 -14.08252,16.83094 -18.89121,27.82236 -3.827,8.99339 -6.05379,19.10679 -6.68285,30.33872 h 27.57427 c 0.5603,-6.55461 1.95421,-12.66071 4.18256,-18.31719 2.97686,-7.78557995 7.09874,-14.426 12.36546,-19.92171 5.26671,-5.49571 11.44911,-9.73213 18.54774,-12.70898 4.34589,-1.96265 8.86419,-3.32182 13.55343,-4.08292 z m -75.92942,98.46945 c 0.63053,11.41565 2.85705,21.71419 6.68193,30.89383 4.80869,10.76238 11.10557,19.92177 18.89121,27.478371 7.78555,7.32761 16.83042,12.93802 27.13487,16.83082 8.07106,3.04905 16.49504,4.8981 25.26852,5.55886 l -0.29177,-25.551261 c -5.38697,-0.59444 -10.50716,-1.82994 -15.3591,-3.70815 -6.86967,-2.97683 -12.93758,-7.21279 -18.20429,-12.70848 -5.26672,-5.4957 -9.3886,-12.0221 -12.36546,-19.5787 -2.24909,-5.88207 -3.64741,-12.28758 -4.19725,-19.21529 z m 143.11934,0 c -0.54994,6.92771 -1.94826,13.33322 -4.19726,19.21529 -2.97686,7.5566 -7.09837,14.083 -12.36509,19.5787 -5.26672,5.49569 -11.44958,9.73165 -18.54822,12.70848 -3.95763,1.58308 -8.14451,2.70735 -12.55806,3.37842 l 0.29222,25.588261 c 7.51048,-0.83705 14.80513,-2.59211 21.8835,-5.26613 10.53344,-3.8928 19.69278,-9.50321 27.47834,-16.83082 7.78563,-7.556601 13.9685,-16.715991 18.5483,-27.478371 4.01603,-9.17964 6.35335,-19.47818 7.01538,-30.89383 z"
       id="text817-5-2-7"
       inkscape:connector-curvature="0" />
    <text
       xml:space="preserve"
       style="font-style:normal;font-variant:normal;font-weight:normal;font-stretch:normal;font-size:374.13296509px;line-height:1.25;font-family:'Space Mono';-inkscape-font-specification:'Space Mono';letter-spacing:0px;word-spacing:0px;fill:#343a40;fill-opacity:1;stroke:none;stroke-width:0.26458332"
       x="-553.89172"
       y="659.52148"
       id="text909-3"><tspan
         sodipodi:role="line"
         id="tspan907-6"
         x="-553.89172"
         y="989.22461"
         style="fill:#343a40;fill-opacity:1;stroke-width:0.26458332" /></text>
    <g
       id="g866"
       inkscape:export-xdpi="96"
       inkscape:export-ydpi="96"
       transform="translate(-66.523809,6.047619)">
      <rect
         y="-96.849648"
         x="675.17383"
         height="255.50966"
         width="255.50966"
         id="rect2559-5"
         style="opacity:1;fill:none;fill-opacity:1;stroke:none;stroke-width:4;stroke-linecap:round;stroke-linejoin:round;stroke-miterlimit:4;stroke-dasharray:none;stroke-opacity:1;paint-order:stroke fill markers" />
      <path
         inkscape:export-ydpi="96"
         inkscape:export-xdpi="96"
         inkscape:connector-curvature="0"
         id="text817-5-2-3"
         d="m 802.93341,-58.946981 c -0.85206,0 -1.70046,0.01506 -2.5472,0.03746 l 2.88019,-0.03369 c -0.11118,-4.86e-4 -0.22172,-0.0037 -0.33299,-0.0037 z m 8.35843,0.36768 0.2937,25.701666 c 4.85532,0.745285 9.52832,2.129593 14.01743,4.156941 7.09864,2.976847 13.28151,7.213274 18.54822,12.708978 5.26672,5.495712 9.38823,12.1361249 12.36509,19.9217079 2.22826,5.656478 3.62226,11.7625811 4.18256,18.3171901 h 27.56518 c -0.66046,-11.23194 -2.99843,-21.3453311 -7.01675,-30.3387211 -4.57981,-10.9914159 -10.87716,-20.2657599 -18.89176,-27.8223559 -7.78555,-7.556605 -16.83042,-13.281028 -27.13488,-17.173821 -7.71927,-2.916181 -15.6955,-4.739954 -23.92879,-5.471585 z m -17.76822,0.105321 c -7.86111,0.789654 -15.48801,2.574519 -22.87786,5.366264 -10.30447,3.892793 -19.46382,9.617216 -27.47843,17.173821 -7.78564,7.556596 -14.08252,16.83094 -18.89121,27.8223559 -3.827,8.99339 -6.05379,19.1067881 -6.68285,30.3387211 h 27.57427 c 0.5603,-6.554609 1.95421,-12.6607121 4.18256,-18.3171901 2.97686,-7.785583 7.09874,-14.4259959 12.36546,-19.9217079 5.26671,-5.495704 11.44912,-9.732131 18.54776,-12.708978 4.34589,-1.962651 8.86419,-3.321824 13.55343,-4.082925 z m -75.92943,98.469452 c 0.63053,11.41565 2.85705,21.71419 6.68193,30.89383 4.80869,10.76238 11.10557,19.92177 18.89121,27.47837 7.78555,7.327608 16.83042,12.938018 27.13488,16.830818 8.07107,3.04905 16.49504,4.8981 25.26852,5.55886 l -0.29176,-25.551258 c -5.38698,-0.59444 -10.50717,-1.82994 -15.3591,-3.70815 -6.86968,-2.97683 -12.9376,-7.21279 -18.20431,-12.70848 -5.26672,-5.4957 -9.3886,-12.0221 -12.36546,-19.5787 -2.24909,-5.88207 -3.64741,-12.28758 -4.19725,-19.21529 z m 143.11934,0 c -0.54993,6.92771 -1.94825,13.33322 -4.19725,19.21529 -2.97686,7.5566 -7.09837,14.083 -12.36509,19.5787 -5.26671,5.49569 -11.44958,9.73165 -18.54822,12.70848 -3.95763,1.58308 -8.14451,2.70735 -12.55806,3.37842 l 0.29222,25.588258 c 7.51049,-0.83705 14.80514,-2.59211 21.8835,-5.26613 10.53343,-3.8928 19.69278,-9.50321 27.47833,-16.830818 7.78563,-7.5566 13.9685,-16.71599 18.54831,-27.47837 4.01603,-9.17964 6.35335,-19.47818 7.01538,-30.89383 z"
         style="font-style:normal;font-variant:normal;font-weight:normal;font-stretch:normal;font-size:374.13296509px;line-height:1.25;font-family:'Space Mono';-inkscape-font-specification:'Space Mono';letter-spacing:0px;word-spacing:0px;fill:#343a40;fill-opacity:1;stroke:none;stroke-width:8.58704662" />
    </g>
    <g
       id="g870"
       inkscape:export-xdpi="96"
       inkscape:export-ydpi="96"
       transform="translate(-66.523809,6.047619)">
      <rect
         y="-96.84964"
         x="962.22125"
         height="255.50966"
         width="255.50966"
         id="rect2559-0-5"
         style="opacity:1;fill:none;fill-opacity:1;stroke:none;stroke-width:4;stroke-linecap:round;stroke-linejoin:round;stroke-miterlimit:4;stroke-dasharray:none;stroke-opacity:1;paint-order:stroke fill markers" />
      <path
         inkscape:export-ydpi="96"
         inkscape:export-xdpi="96"
         inkscape:connector-curvature="0"
         id="text817-5-2-7-6"
         d="m 1089.9809,-58.946988 c -0.8521,0 -1.7005,0.0151 -2.5472,0.0375 l 2.8802,-0.0337 c -0.1112,-5.3e-4 -0.2217,-0.004 -0.333,-0.004 z m 8.3584,0.36768 0.2937,25.70167 c 4.8553,0.74529 9.5283,2.12959 14.0175,4.15694 7.0986,2.97685 13.2815,7.21327 18.5482,12.70898 5.2667,5.49571 9.3882,12.1361299 12.3651,19.9217099 2.2282,5.65648 3.6222,11.7625801 4.1825,18.3171901 h 27.5652 c -0.6605,-11.23194 -2.9984,-21.3453301 -7.0168,-30.3387201 -4.5797,-10.9914199 -10.8771,-20.2657699 -18.8917,-27.8223599 -7.7856,-7.55661 -16.8304,-13.28103 -27.1349,-17.17382 -7.7193,-2.91618 -15.6955,-4.73996 -23.9288,-5.47159 z m -17.7682,0.10533 c -7.8611,0.78965 -15.488,2.57451 -22.8779,5.36626 -10.3044,3.89279 -19.4638,9.61721 -27.4784,17.17382 -7.7856,7.55659 -14.0825,16.83094 -18.8912,27.8223599 -3.827,8.99339 -6.0538,19.1067901 -6.6828,30.3387201 h 27.5742 c 0.5603,-6.55461 1.9542,-12.6607101 4.1826,-18.3171901 2.9769,-7.78558 7.0987,-14.4259999 12.3655,-19.9217099 5.2667,-5.49571 11.4491,-9.73213 18.5477,-12.70898 4.3459,-1.96265 8.8642,-3.32182 13.5534,-4.08292 z m -75.9294,98.46945 c 0.6305,11.41565 2.857,21.71419 6.6819,30.89383 4.8087,10.76238 11.1056,19.92177 18.8912,27.47837 7.7856,7.327608 16.8305,12.938018 27.1349,16.830818 8.071,3.04905 16.495,4.8981 25.2685,5.55886 l -0.2918,-25.551258 c -5.3869,-0.59444 -10.5071,-1.82994 -15.3591,-3.70815 -6.8696,-2.97683 -12.9375,-7.21279 -18.2042,-12.70848 -5.2668,-5.4957 -9.3886,-12.0221 -12.3655,-19.5787 -2.2491,-5.88207 -3.6474,-12.28758 -4.1972,-19.21529 z m 143.1193,0 c -0.5499,6.92771 -1.9482,13.33322 -4.1972,19.21529 -2.9769,7.5566 -7.0984,14.083 -12.3651,19.5787 -5.2667,5.49569 -11.4496,9.73165 -18.5482,12.70848 -3.9577,1.58308 -8.1445,2.70735 -12.5581,3.37842 l 0.2922,25.588258 c 7.5105,-0.83705 14.8051,-2.59211 21.8835,-5.26613 10.5335,-3.8928 19.6928,-9.50321 27.4783,-16.830818 7.7857,-7.5566 13.9686,-16.71599 18.5483,-27.47837 4.0161,-9.17964 6.3534,-19.47818 7.0154,-30.89383 z"
         style="font-style:normal;font-variant:normal;font-weight:normal;font-stretch:normal;font-size:374.13296509px;line-height:1.25;font-family:'Space Mono';-inkscape-font-specification:'Space Mono';letter-spacing:0px;word-spacing:0px;fill:#3eaf7c;fill-opacity:1;stroke:none;stroke-width:8.58704662" />
    </g>
  </g>
</svg>
